Motion_pl10
version=1
nRows=15
nColumns=43
inDegrees=yes
endheader
time	pelvis_tilt	pelvis_list	pelvis_rotation	pelvis_tx	pelvis_ty	pelvis_tz	hip_flexion_r	hip_adduction_r	hip_rotation_r	knee_angle_r	ankle_angle_r	subtalar_angle_r	mtp_angle_r	hip_flexion_l	hip_adduction_l	hip_rotation_l	knee_angle_l	ankle_angle_l	subtalar_angle_l	mtp_angle_l	lumbar_extension	lumbar_bending	lumbar_rotation	neck_flexion	neck_lateral_bending	neck_rotation	arm_flex_r	arm_add_r	arm_rot_r	elbow_flex_r	pro_sup_r	wrist_flex_r	wrist_dev_r	hand_finger_flex_r	arm_flex_l	arm_add_l	arm_rot_l	elbow_flex_l	pro_sup_l	wrist_flex_l	wrist_dev_l	hand_finger_flex_l
      1.47250000	      0.27341738	    -18.11185220	     84.03162181	      0.00062999	      0.60319323	      0.38810271	     90.26264571	     -2.67434291	     -1.51250747	   -112.99210876	     21.75985168	      7.98884181	     19.99630769	     91.32400319	     -9.03153261	      3.76318095	   -112.58980374	     15.96304307	     16.15835213	     34.69134659	    -55.62170391	     -1.07957527	      0.77713224	     42.27219778	      2.77772109	      2.18145933	    114.65652407	    -13.51514238	     21.18761834	     46.73027269	     97.63330194	      4.30776319	     -7.15598141	     -6.21491450	    106.37686837	    -21.83029786	     25.71511241	     49.34996552	    111.16168039	    -36.56917933	     -7.97253685	     10.73189825
      1.47500000	      0.20518033	    -18.00721336	     83.91661578	      0.00074440	      0.60415199	      0.38777213	     90.01922452	     -2.59898586	     -1.45799982	   -112.82768083	     21.89442713	      8.01225593	     19.91811165	     91.01217284	     -9.15240413	      3.69592871	   -112.40891089	     16.07520808	     16.40563764	     34.72367303	    -55.72361760	     -1.16359083	      0.64623577	     42.41915121	      2.71789865	      2.44736786	    114.62025867	    -13.30417737	     21.00429770	     46.61213610	     97.13866058	      4.27352624	     -7.06193758	     -6.44909641	    106.17723936	    -22.09997331	     25.54633492	     49.72141617	    111.24612572	    -36.59142195	     -8.15414524	     10.87120382
      1.47750000	      0.20232751	    -18.00902982	     83.91037384	      0.00064417	      0.60435331	      0.38770330	     89.99292819	     -2.60551906	     -1.45016925	   -112.82272245	     21.89127458	      8.01206611	     19.91632114	     90.98221357	     -9.16220349	      3.70939254	   -112.39793291	     16.07294645	     16.40874539	     34.72367262	    -55.66937299	     -1.15452806	      0.63842094	     42.42244985	      2.71633691	      2.44863697	    114.62505339	    -13.33789926	     20.99194650	     46.59379000	     97.13528753	      4.26958781	     -7.05654122	     -6.45281810	    106.17126312	    -22.11349782	     25.54458104	     49.71649510	    111.24681998	    -36.59017859	     -8.15259147	     10.87394193
      1.48000000	      0.17100215	    -18.01789488	     83.91020266	      0.00049420	      0.60492740	      0.38763001	     89.90869586	     -2.63718764	     -1.42426637	   -112.68878626	     21.90505822	      8.00876742	     19.89128577	     90.86477130	     -9.14040360	      3.70565888	   -112.22155527	     16.09599816	     16.57505517	     34.73745771	    -55.61490151	     -1.15589376	      0.64835286	     42.39371879	      2.73000818	      2.45013518	    114.61779558	    -13.37874459	     20.94466838	     46.49331454	     97.05373954	      4.25402033	     -7.02239119	     -6.50505654	    106.09419851	    -22.12282770	     25.59372529	     49.77032521	    111.28683856	    -36.56378526	     -8.17400216	     10.92329090
      1.48250000	      0.16897165	    -18.01568983	     83.90739760	      0.00042335	      0.60512345	      0.38755573	     89.87993439	     -2.64011809	     -1.41917450	   -112.69108267	     21.90397338	      8.00821128	     19.88972224	     90.83487129	     -9.15286142	      3.72015323	   -112.21333924	     16.09557752	     16.58524780	     34.73813837	    -55.56226850	     -1.14792418	      0.63068272	     42.40109143	      2.72750713	      2.44974813	    114.61520940	    -13.40739337	     20.93369033	     46.47724866	     97.04960469	      4.25109106	     -7.01801792	     -6.50815658	    106.08960278	    -22.13828980	     25.59104234	     49.76722506	    111.28858895	    -36.56375969	     -8.17387067	     10.92562987
      1.48500000	      0.09867156	    -17.86849121	     83.95448747	      0.00049387	      0.60582613	      0.38718422	     89.63600779	     -2.70436866	     -1.36331176	   -112.64881295	     22.07202463	      7.96057974	     19.79862361	     90.52546701	     -9.14784501	      3.74704498	   -112.05749167	     16.32776874	     17.60847787	     34.83161313	    -55.66604547	     -1.16023452	      0.38525498	     42.48487642	      2.81680285	      2.37622104	    114.51528867	    -13.25150756	     20.73347261	     46.37416383	     96.71127754	      4.21703762	     -6.98263607	     -6.67603165	    106.02756022	    -22.39961840	     25.66652422	     49.97245953	    111.48750799	    -36.52904332	     -8.28028817	     11.07898820
      1.48750000	      0.09954875	    -17.86607990	     83.94732874	      0.00039475	      0.60598928	      0.38712847	     89.61050975	     -2.70712535	     -1.35802079	   -112.64397524	     22.06827030	      7.96078527	     19.79674321	     90.50106483	     -9.15532813	      3.75287947	   -112.04934186	     16.32634163	     17.61286054	     34.83163723	    -55.61313684	     -1.15016586	      0.38115123	     42.48940069	      2.81642263	      2.37836784	    114.52233561	    -13.28606347	     20.71905964	     46.35988549	     96.70974121	      4.21284580	     -6.97894039	     -6.67858262	    106.02187963	    -22.41691634	     25.66394542	     49.96519874	    111.48809682	    -36.52934394	     -8.27751557	     11.08054003
      1.49000000	      0.09594130	    -17.86915138	     83.94930066	      0.00033113	      0.60631803	      0.38696914	     89.54679540	     -2.70870491	     -1.35390055	   -112.56967406	     22.05991779	      7.96328928	     19.78644466	     90.43287101	     -9.16232926	      3.74760246	   -111.95895938	     16.33287474	     17.66232352	     34.83367689	    -55.53062245	     -1.14204526	      0.39875408	     42.51316848	      2.82299329	      2.38658483	    114.46762401	    -13.33690939	     20.70232834	     46.29401428	     96.70066915	      4.20866875	     -6.95980866	     -6.68806740	    105.93445772	    -22.42273740	     25.71186821	     49.97370340	    111.50602968	    -36.52252653	     -8.28085496	     11.09078865
      1.49250000	      0.10218929	    -17.86500157	     83.93994150	      0.00023889	      0.60639646	      0.38680583	     89.52230794	     -2.70951390	     -1.35289916	   -112.56666158	     22.05790286	      7.96346730	     19.78507290	     90.40739290	     -9.16709942	      3.74865274	   -111.95427800	     16.33286047	     17.67013587	     34.83402178	    -55.47714337	     -1.13265213	      0.39065251	     42.51722196	      2.82311054	      2.38725220	    114.47824832	    -13.37244175	     20.68478098	     46.28364292	     96.69882392	      4.20379476	     -6.95727503	     -6.69041123	    105.93400563	    -22.44569674	     25.70742945	     49.97186917	    111.50785810	    -36.52473767	     -8.28075246	     11.09093849
      1.49500000	      0.10404003	    -17.86486561	     83.94408234	      0.00034188	      0.60669825	      0.38679386	     89.47917159	     -2.70863709	     -1.35596224	   -112.53152561	     22.05498226	      7.96470066	     19.78139751	     90.36419698	     -9.17682206	      3.74401026	   -111.91526327	     16.33790893	     17.69520705	     34.83528281	    -55.42016578	     -1.12945165	      0.38945319	     42.53763343	      2.82544897	      2.39022383	    114.44125867	    -13.43511591	     20.66242455	     46.23875918	     96.69508930	      4.19790554	     -6.94541574	     -6.69498605	    105.88086376	    -22.48755038	     25.72230111	     49.97122474	    111.51761854	    -36.52723437	     -8.28477586	     11.09188570
      1.49750000	      0.13989828	    -17.81095556	     83.91094705	      0.00043613	      0.60718197	      0.38644229	     89.30170047	     -2.64930316	     -1.41424702	   -112.43169103	     22.13963135	      7.96316579	     19.72850163	     90.18482038	     -9.29309574	      3.78973383	   -111.81994753	     16.56293317	     18.18605891	     34.88188973	    -55.43826695	     -1.15580665	      0.33036264	     42.69903774	      2.91386654	      2.45035040	    114.31176184	    -13.34671632	     20.44419619	     46.30177825	     96.57169324	      4.17637100	     -6.93470600	     -6.77284373	    105.78099147	    -22.76002402	     25.86689026	     50.28753496	    111.69958917	    -36.64369950	     -8.39274796	     11.04235135
      1.50000000	      0.14445900	    -17.80532648	     83.90341487	      0.00035389	      0.60729984	      0.38637701	     89.28022116	     -2.64728933	     -1.41598202	   -112.42955802	     22.13696330	      7.96322852	     19.72720237	     90.15885648	     -9.29615340	      3.78770978	   -111.81919727	     16.56013438	     18.19038246	     34.88177394	    -55.38544325	     -1.14603643	      0.32643342	     42.70541640	      2.91296772	      2.45311417	    114.31504494	    -13.38304891	     20.42728910	     46.28537726	     96.57104206	      4.17163939	     -6.93014899	     -6.77534120	    105.77623174	    -22.78351017	     25.86114484	     50.27677494	    111.69919264	    -36.64595511	     -8.38819909	     11.04133518
      1.50250000	      0.14785599	    -17.79038705	     83.90854105	      0.00036431	      0.60746346	      0.38624649	     89.23522239	     -2.64255946	     -1.42834214	   -112.39427168	     22.13097165	      7.96294777	     19.72294995	     90.11486043	     -9.31237015	      3.77682037	   -111.78069532	     16.55683926	     18.20438054	     34.88171007	    -55.31609476	     -1.14266828	      0.32905728	     42.73218429	      2.90792159	      2.46613301	    114.25638081	    -13.43826905	     20.40284125	     46.22741942	     96.56731287	      4.16551337	     -6.91450009	     -6.78225014	    105.70975178	    -22.80560632	     25.87974242	     50.26376876	    111.70404875	    -36.64924598	     -8.38204503	     11.03804871
      1.50500000	      0.15271397	    -17.79087779	     83.90283067	      0.00031399	      0.60761453	      0.38616955	     89.20815923	     -2.64178025	     -1.43267336	   -112.39145692	     22.12837639	      7.96237765	     19.72176183	     90.08345666	     -9.31919115	      3.77351641	   -111.77803641	     16.55411940	     18.20842230	     34.88175739	    -55.26208807	     -1.13510505	      0.32622036	     42.73807206	      2.90605050	      2.46994167	    114.25420976	    -13.46152564	     20.38681263	     46.21654279	     96.56442487	      4.16133162	     -6.91233768	     -6.78520110	    105.70521882	    -22.81677913	     25.87911883	     50.26621214	    111.70549386	    -36.65250041	     -8.38196699	     11.03605024
      1.50750000	      0.21892462	    -17.71059983	     83.84713913	      0.00061875	      0.60815624	      0.38581704	     89.01216645	     -2.54476900	     -1.54271384	   -112.29695648	     22.17483147	      7.86937787	     19.67523454	     89.90982171	     -9.48737997	      3.80831793	   -111.71305593	     16.62516384	     18.39444931	     34.91133181	    -55.29264808	     -1.17000755	      0.36123006	     42.80663033	      2.91984946	      2.59856549	    114.00705500	    -13.34144450	     19.93498080	     46.27706803	     96.36099631	      4.09167187	     -6.95851377	     -6.92200762	    105.55567956	    -22.95940445	     25.89022611	     50.48599812	    111.77823805	    -36.81912578	     -8.40100734	     10.89663499
